# xmcd
#
# Track frame offsets:
# 150
# 12680
# 24162
# 34604
# 46433
# 58115
# 66743
# 76051
# 88576
# 97966
#
# Disc length: 1485 seconds
#
#
# Revision: 0
# Processed by: cddbd v1.5.1PL0 Copyright (c) Steve Scherf et al.
# Submitted via: FreeRIP 2.70 
#
DISCID=7a05cb0a
DTITLE=Jim Reeves - I'd Fight The World
DYEAR=1900
DGENRE=
TTITLE0=I'd Fight The World
TTITLE1=Could I Be Falling In Love
TTITLE2=Have You Ever Been Lonely
TTITLE3=Pride Goes Before A Fall
TTITLE4=The Talking Waltz
TTITLE5=Crying In My Sleep
TTITLE6=The Hawaiin Wedding Song
TTITLE7=Before I Died
TTITLE8=But You Love Me, Daddy
TTITLE9=The Streets Of Laredo
EXTD=
EXTT0=
EXTT1=
EXTT2=
EXTT3=
EXTT4=
EXTT5=
EXTT6=
EXTT7=
EXTT8=
EXTT9=
PLAYORDER=
